<svg width="27" height="27" viewBox="0 0 120 120" fill="none" xmlns="http://www.w3.org/2000/svg">
<path fill-rule="evenodd" clip-rule="evenodd" d="M60 0C26.85 0 0 27.5291 0 61.5176C0 88.7392 17.175 111.731 41.025 119.882C44.025 120.421 45.15 118.575 45.15 116.96C45.15 115.499 45.075 110.655 45.075 105.503C30 108.348 26.1 101.735 24.9 98.2744C24.225 96.5058 21.3 91.0461 18.75 89.5851C16.65 88.4316 13.65 85.5864 18.675 85.5095C23.4 85.4326 26.775 89.9695 27.9 91.8151C33.3 101.12 41.925 98.5051 45.375 96.8903C45.9 92.8916 47.475 90.2002 49.2 88.6623C35.85 87.1243 21.9 81.8185 21.9 58.288C21.9 51.5979 24.225 46.0613 28.05 41.7551C27.45 40.2172 25.35 33.9116 28.65 25.4529C28.65 25.4529 33.675 23.8381 45.15 31.7585C49.95 30.3743 55.05 29.6823 60.15 29.6823C65.25 29.6823 70.35 30.3743 75.15 31.7585C86.625 23.7612 91.65 25.4529 91.65 25.4529C94.95 33.9116 92.85 40.2172 92.25 41.7551C96.075 46.0613 98.4 51.521 98.4 58.288C98.4 81.8953 84.375 87.1243 71.025 88.6623C73.2 90.5847 75.075 94.2758 75.075 100.043C75.075 108.271 75 114.884 75 116.96C75 118.575 76.125 120.498 79.125 119.882C91.0359 115.759 101.386 107.911 108.718 97.4407C116.051 86.9708 119.996 74.407 120 61.5176C120 27.5291 93.15 0 60 0Z" fill="white"/>
</svg>
