<svg width="24" height="26" viewBox="0 0 24 26" fill="none" xmlns="http://www.w3.org/2000/svg">
<path d="M12.9282 0.133423C13.8745 0.133423 14.7312 0.658961 15.2044 1.43476C15.4345 1.81014 15.588 2.27311 15.5496 2.76111C15.5241 3.1365 15.6392 3.51188 15.8438 3.86224C16.4959 4.92583 17.9409 5.32624 19.0662 4.72563C20.3322 3.99988 21.9306 4.43783 22.6595 5.6766L23.5163 7.15311C24.258 8.39188 23.8488 9.98101 22.57 10.6942C21.4831 11.3324 21.0994 12.7463 21.7516 13.8224C21.9562 14.1603 22.1864 14.4481 22.5444 14.6233C22.992 14.861 23.3373 15.2364 23.5802 15.6118C24.0534 16.3876 24.015 17.3386 23.5547 18.1769L22.6595 19.6784C22.1864 20.4793 21.304 20.9798 20.3961 20.9798C19.9486 20.9798 19.4498 20.8547 19.0406 20.6044C18.7082 20.3917 18.3245 20.3166 17.9153 20.3166C16.6494 20.3166 15.588 21.3552 15.5496 22.5939C15.5496 24.0329 14.3732 25.1591 12.9026 25.1591H11.1635C9.68014 25.1591 8.50369 24.0329 8.50369 22.5939C8.47811 21.3552 7.41674 20.3166 6.15077 20.3166C5.72878 20.3166 5.34516 20.3917 5.02547 20.6044C4.61627 20.8547 4.10476 20.9798 3.66999 20.9798C2.74928 20.9798 1.86694 20.4793 1.3938 19.6784L0.511456 18.1769C0.0383163 17.3636 0.0127412 16.3876 0.485881 15.6118C0.690482 15.2364 1.07411 14.861 1.50889 14.6233C1.86694 14.4481 2.09711 14.1603 2.3145 13.8224C2.95388 12.7463 2.57025 11.3324 1.48331 10.6942C0.217342 9.98101 -0.19186 8.39188 0.537032 7.15311L1.3938 5.6766C2.13548 4.43783 3.72114 3.99988 4.99989 4.72563C6.11241 5.32624 7.55741 4.92583 8.20957 3.86224C8.41417 3.51188 8.52926 3.1365 8.50369 2.76111C8.47811 2.27311 8.61877 1.81014 8.86174 1.43476C9.33488 0.658961 10.1916 0.158448 11.1251 0.133423H12.9282ZM12.0458 9.11763C10.0382 9.11763 8.41417 10.6942 8.41417 12.6588C8.41417 14.6233 10.0382 16.1874 12.0458 16.1874C14.0535 16.1874 15.6392 14.6233 15.6392 12.6588C15.6392 10.6942 14.0535 9.11763 12.0458 9.11763Z" fill="#EFF2F4"/>
</svg>
