<svg width="26" height="23" viewBox="0 0 26 23" fill="none" xmlns="http://www.w3.org/2000/svg">
<path d="M21.2406 14.1116C23.618 14.1116 25.5436 16.0048 25.5436 18.3405C25.5436 20.6749 23.618 22.5681 21.2406 22.5681C18.8646 22.5681 16.9376 20.6749 16.9376 18.3405C16.9376 16.0048 18.8646 14.1116 21.2406 14.1116ZM10.6324 16.5371C11.6738 16.5371 12.5191 17.3676 12.5191 18.3907C12.5191 19.4124 11.6738 20.2442 10.6324 20.2442H2.40459C1.36325 20.2442 0.517944 19.4124 0.517944 18.3907C0.517944 17.3676 1.36325 16.5371 2.40459 16.5371H10.6324ZM4.82094 0.323059C7.19836 0.323059 9.12394 2.21623 9.12394 4.55059C9.12394 6.88632 7.19836 8.77949 4.82094 8.77949C2.44491 8.77949 0.517944 6.88632 0.517944 4.55059C0.517944 2.21623 2.44491 0.323059 4.82094 0.323059ZM23.6583 2.6984C24.6983 2.6984 25.5436 3.52888 25.5436 4.55059C25.5436 5.57367 24.6983 6.40415 23.6583 6.40415H15.4305C14.3892 6.40415 13.5439 5.57367 13.5439 4.55059C13.5439 3.52888 14.3892 2.6984 15.4305 2.6984H23.6583Z" fill="#EFF2F4"/>
</svg>
