<svg width="28" height="21" viewBox="0 0 28 21" fill="none" xmlns="http://www.w3.org/2000/svg">
<path d="M13.967 13.7009C18.2604 13.7009 21.9264 14.3815 21.9264 17.1053C21.9264 19.8279 18.284 20.5333 13.967 20.5333C9.67367 20.5333 6.00772 19.8527 6.00772 17.1301C6.00772 14.4063 9.65014 13.7009 13.967 13.7009ZM20.8316 12.0607C22.473 12.0303 24.2377 12.2557 24.8897 12.4157C26.2712 12.6873 27.1798 13.2417 27.5563 14.0475C27.8745 14.709 27.8745 15.4764 27.5563 16.1368C26.9804 17.3865 25.1239 17.7877 24.4024 17.8914C24.2533 17.9139 24.1335 17.7843 24.1491 17.6345C24.5178 14.1715 21.5857 12.5295 20.8271 12.152C20.7947 12.1351 20.7879 12.1092 20.7913 12.0934C20.7935 12.0822 20.807 12.0641 20.8316 12.0607ZM6.92177 12.0584L7.23086 12.0612C7.25551 12.0646 7.26783 12.0826 7.27007 12.0927C7.27343 12.1097 7.26671 12.1344 7.23534 12.1525C6.47571 12.53 3.54362 14.1719 3.91223 17.6338C3.92791 17.7848 3.80915 17.9133 3.66014 17.8918C2.9386 17.7882 1.0821 17.387 0.506209 16.1372C0.186895 15.4757 0.186895 14.7094 0.506209 14.0479C0.882664 13.2422 1.79019 12.6878 3.17164 12.415C3.82484 12.2562 5.58835 12.0308 7.23086 12.0612L6.92177 12.0584ZM13.967 0.512817C16.8902 0.512817 19.2341 2.86807 19.2341 5.80931C19.2341 8.74942 16.8902 11.1069 13.967 11.1069C11.0439 11.1069 8.70004 8.74942 8.70004 5.80931C8.70004 2.86807 11.0439 0.512817 13.967 0.512817ZM21.1173 1.39609C23.9407 1.39609 26.158 4.068 25.4029 7.04418C24.8931 9.04783 23.0478 10.3787 20.9918 10.3246C20.7857 10.319 20.5829 10.2998 20.3868 10.266C20.2445 10.2412 20.1728 10.0801 20.2535 9.96063C21.0378 8.79991 21.4848 7.40366 21.4848 5.90487C21.4848 4.34072 20.9963 2.88249 20.1482 1.68684C20.1213 1.64965 20.1011 1.59217 20.128 1.54935C20.1504 1.51442 20.1919 1.49639 20.2311 1.48737C20.5168 1.42877 20.8103 1.39609 21.1173 1.39609ZM6.94347 1.39598C7.25046 1.39598 7.54401 1.42866 7.83083 1.48726C7.86893 1.49627 7.9115 1.51543 7.93391 1.54924C7.95968 1.59206 7.94063 1.64953 7.91374 1.68672C7.0656 2.88238 6.5771 4.3406 6.5771 5.90476C6.5771 7.40355 7.02414 8.7998 7.80842 9.96052C7.88909 10.08 7.81739 10.2411 7.6751 10.2659C7.47791 10.3008 7.27623 10.3189 7.07008 10.3245C5.01414 10.3786 3.16884 9.04772 2.65906 7.04407C1.90279 4.06789 4.12006 1.39598 6.94347 1.39598Z" fill="#EFF2F4"/>
</svg>
